<svg xmlns="http://www.w3.org/2000/svg" viewBox="0 0 300 72" width="300" height="72" role="img" aria-label="CHRONOS — data.gv.at über die Zeit">
  <g transform="translate(4,4)">
    <path d="M 40.55 8.51 A 25 25 0 1 1 23.45 8.51" fill="none" stroke="#14201D" stroke-width="2.4" stroke-linecap="round"/>
  <line x1="44.50" y1="10.35" x2="42.90" y2="13.12" stroke="#C4CCC7" stroke-width="1.4" stroke-linecap="round"/>
  <line x1="53.65" y1="19.50" x2="50.88" y2="21.10" stroke="#C4CCC7" stroke-width="1.4" stroke-linecap="round"/>
  <line x1="57.00" y1="32.00" x2="51.00" y2="32.00" stroke="#66756F" stroke-width="2.0" stroke-linecap="round"/>
  <line x1="53.65" y1="44.50" x2="50.88" y2="42.90" stroke="#C4CCC7" stroke-width="1.4" stroke-linecap="round"/>
  <line x1="44.50" y1="53.65" x2="42.90" y2="50.88" stroke="#C4CCC7" stroke-width="1.4" stroke-linecap="round"/>
  <line x1="32.00" y1="57.00" x2="32.00" y2="51.00" stroke="#66756F" stroke-width="2.0" stroke-linecap="round"/>
  <line x1="19.50" y1="53.65" x2="21.10" y2="50.88" stroke="#C4CCC7" stroke-width="1.4" stroke-linecap="round"/>
  <line x1="10.35" y1="44.50" x2="13.12" y2="42.90" stroke="#C4CCC7" stroke-width="1.4" stroke-linecap="round"/>
  <line x1="7.00" y1="32.00" x2="13.00" y2="32.00" stroke="#66756F" stroke-width="2.0" stroke-linecap="round"/>
  <line x1="10.35" y1="19.50" x2="13.12" y2="21.10" stroke="#C4CCC7" stroke-width="1.4" stroke-linecap="round"/>
  <line x1="19.50" y1="10.35" x2="21.10" y2="13.12" stroke="#C4CCC7" stroke-width="1.4" stroke-linecap="round"/>
  <path d="M 15 41 L 21 37 L 26 39 L 32 31 L 39 33 L 47 23" fill="none" stroke="#0E7C6B" stroke-width="2.6" stroke-linejoin="round" stroke-linecap="round"/>
  <circle cx="47" cy="23" r="3.4" fill="#0E7C6B"/>
  <circle cx="47" cy="23" r="3.4" fill="none" stroke="#fff" stroke-width="1.1"/>
  </g>
  <g transform="translate(78,0)" font-family="ui-monospace,'SF Mono','JetBrains Mono',Menlo,Consolas,monospace">
    <text x="0" y="38" font-size="30" font-weight="700" letter-spacing="5" fill="#14201D">CHRONOS</text>
    <text x="2" y="56" font-size="10.5" letter-spacing="3" fill="#66756F">DATA.GV.AT — ÜBER DIE ZEIT</text>
  </g>
</svg>